# xmcd
#
# Track frame offsets: 
#        150
#        18785
#        42081
#        66023
#        83067
#        109788
#        124862
#        143075
#        162875
#        189852
#        212823
#        233498
#        272222
#        289215
#
# Disc length: 4213 seconds
#
# Revision: 0
# Processed by: cddbd v1.5.2PL0 Copyright (c) Steve Scherf et al.
# Submitted via: ExactAudioCopy v0.99pb3
#
DISCID=ba10730e
DTITLE=Zora Young - The French Connection
DYEAR=2009
DGENRE=Blues
TTITLE0=Better Be Ready
TTITLE1=Goin' Back To Memphis
TTITLE2=Wang Dang Doodle
TTITLE3=I'm In Love With You
TTITLE4=Honey Bee
TTITLE5=Tonight I'll Be Staying Here With You
TTITLE6=Just A Closer Walk With Thee
TTITLE7=See See Rider
TTITLE8=In The Ghetto
TTITLE9=Mystery Train
TTITLE10=I'm Movin' On
TTITLE11=Toxic
TTITLE12=Goin' Back To Memphis (version 2)
TTITLE13=Rock Me Baby
EXTD=
EXTT0=
EXTT1=
EXTT2=
EXTT3=
EXTT4=
EXTT5=
EXTT6=
EXTT7=
EXTT8=
EXTT9=
EXTT10=
EXTT11=
EXTT12=
EXTT13=
PLAYORDER=
